<svg id="Layer_1" data-name="Layer 1" xmlns="http://www.w3.org/2000/svg" viewBox="0 0 199.25 198.82"><defs><style>.cls-1{fill:#fff;}</style></defs><title>backicon</title><path class="cls-1" d="M100,199.41C45,199.39.34,154.74.38,99.9S45.19.53,100.15.59a99.64,99.64,0,0,1,99.47,99.62C199.55,154.9,154.81,199.43,100,199.41Zm0-13.66A85.75,85.75,0,1,0,14.05,99.8,85.88,85.88,0,0,0,99.91,185.75Z" transform="translate(-0.38 -0.59)"/><path class="cls-1" d="M70.75,93.21h2.49q35.36,0,70.73,0a16.16,16.16,0,0,1,3.82.28,6.7,6.7,0,0,1,4.89,7.12,6.63,6.63,0,0,1-5.88,6.07,28.35,28.35,0,0,1-3.2.11q-35.14,0-70.3,0H70.17c.89.94,1.39,1.48,1.9,2L96,132.66a6.71,6.71,0,0,1,1.92,7.21,6.53,6.53,0,0,1-5.61,4.63c-2.64.43-4.65-.89-6.44-2.67L63.15,119.18C58.57,114.6,54,110,49.4,105.43c-3.57-3.61-3.6-7.24,0-10.81Q67.64,76.32,86,58.07c2.1-2.1,4.5-3.29,7.51-2.29a6.5,6.5,0,0,1,4.67,5.33,6.94,6.94,0,0,1-2.28,6.36Q84,79.29,72.1,91.16a13.66,13.66,0,0,1-1.74,1.24Z" transform="translate(-0.38 -0.59)"/></svg>